<svg width="17" height="16" viewBox="0 0 17 16" fill="none" xmlns="http://www.w3.org/2000/svg">
<path fill-rule="evenodd" clip-rule="evenodd" d="M14.442 9.00004C14.9679 9.00004 15.3943 8.55232 15.3943 8.00004C15.3943 7.44775 14.9679 7.00004 14.442 7.00004L9.72744 7.00004L9.72744 2.28572C9.72744 1.75973 9.27972 1.33334 8.72744 1.33334C8.17515 1.33334 7.72744 1.75973 7.72744 2.28572L7.72744 7.00004L3.01339 7.00004C2.4874 7.00004 2.06101 7.44775 2.06101 8.00004C2.06101 8.55232 2.4874 9.00004 3.01339 9.00004L7.72744 9.00004L7.72744 13.7143C7.72744 14.2403 8.17516 14.6667 8.72744 14.6667C9.27972 14.6667 9.72744 14.2403 9.72744 13.7143L9.72744 9.00004L14.442 9.00004Z" fill="#A1B1CA"/>
</svg>
