<svg width="16" height="16" viewBox="0 0 16 16" fill="none" xmlns="http://www.w3.org/2000/svg">
<path fill-rule="evenodd" clip-rule="evenodd" d="M6.94941 11.9799C9.67406 11.9799 11.8988 9.75467 11.8988 6.98993C11.8988 4.2252 9.67406 2 6.94941 2C4.22477 2 2 4.2252 2 6.98993C2 9.75467 4.22477 11.9799 6.94941 11.9799ZM6.94941 13.4799C10.5113 13.4799 13.3988 10.5742 13.3988 6.98993C13.3988 3.40564 10.5113 0.5 6.94941 0.5C3.3875 0.5 0.5 3.40564 0.5 6.98993C0.5 10.5742 3.3875 13.4799 6.94941 13.4799Z" fill="#2664DF"/>
<path opacity="0.4" d="M14.5059 15.4664C14.2554 15.4583 14.0171 15.3552 13.8389 15.1778L12.3116 13.3926C11.9842 13.0932 11.9574 12.5842 12.2516 12.2517C12.3893 12.1123 12.5765 12.034 12.7718 12.034C12.9671 12.034 13.1543 12.1123 13.292 12.2517L15.2129 13.7886C15.4895 14.0718 15.5749 14.4922 15.4308 14.8619C15.2868 15.2316 14.9401 15.4816 14.5459 15.5L14.5059 15.4664Z" fill="#2664DF"/>
</svg>
