<svg width="22" height="22" viewBox="0 0 22 22" fill="none" xmlns="http://www.w3.org/2000/svg">
<g clip-path="url(#clip0)">
<path fill-rule="evenodd" clip-rule="evenodd" d="M2.75 15.4642V8.48559H19.25V15.5201C19.25 18.3975 17.4388 20.1667 14.5409 20.1667H7.45006C4.57931 20.1667 2.75 18.3608 2.75 15.4642ZM7.2961 13.2092C6.87953 13.2284 6.5354 12.8975 6.51729 12.4768C6.51729 12.0551 6.84331 11.7068 7.25988 11.6875C7.6674 11.6875 8.00247 12.0093 8.01153 12.4208C8.02964 12.8434 7.70362 13.1918 7.2961 13.2092ZM11.0181 13.2092C10.6015 13.2284 10.2574 12.8975 10.2393 12.4768C10.2393 12.0551 10.5653 11.7068 10.9819 11.6875C11.3894 11.6875 11.7245 12.0093 11.7335 12.4208C11.7516 12.8434 11.4256 13.1918 11.0181 13.2092ZM14.713 16.5825C14.2964 16.5733 13.9613 16.225 13.9613 15.8033C13.9523 15.3817 14.2873 15.0343 14.7039 15.0251H14.713C15.1386 15.0251 15.4827 15.3734 15.4827 15.8033C15.4827 16.2342 15.1386 16.5825 14.713 16.5825ZM10.2393 15.8033C10.2574 16.225 10.6015 16.5559 11.0181 16.5367C11.4256 16.5193 11.7516 16.1709 11.7335 15.7493C11.7245 15.3368 11.3894 15.015 10.9819 15.015C10.5653 15.0343 10.2393 15.3817 10.2393 15.8033ZM6.50823 15.8033C6.52634 16.225 6.87047 16.5559 7.28705 16.5367C7.69457 16.5193 8.02058 16.1709 8.00247 15.7493C7.99341 15.3368 7.65834 15.015 7.25082 15.015C6.83425 15.0343 6.50823 15.3817 6.50823 15.8033ZM13.9704 12.4676C13.9704 12.0459 14.2964 11.7068 14.713 11.6976C15.1205 11.6976 15.4465 12.0267 15.4646 12.4309C15.4737 12.8526 15.1476 13.2009 14.7401 13.2092C14.3235 13.2183 13.9794 12.8975 13.9704 12.4768V12.4676Z" fill="#868A8F"/>
<path opacity="0.4" d="M2.75317 8.48549C2.76495 7.94741 2.81023 6.87949 2.89535 6.53574C3.33004 4.60249 4.80617 3.37416 6.91621 3.19907H15.0847C17.1766 3.38332 18.6709 4.61991 19.1056 6.53574C19.1898 6.87032 19.2351 7.94649 19.2468 8.48549H2.75317Z" fill="#868A8F"/>
<path d="M7.61284 6.04084C8.0113 6.04084 8.31015 5.73925 8.31015 5.335V2.54009C8.31015 2.13584 8.0113 1.83334 7.61284 1.83334C7.21437 1.83334 6.91553 2.13584 6.91553 2.54009V5.335C6.91553 5.73925 7.21437 6.04084 7.61284 6.04084Z" fill="#868A8F"/>
<path d="M14.387 6.04084C14.7764 6.04084 15.0843 5.73925 15.0843 5.335V2.54009C15.0843 2.13584 14.7764 1.83334 14.387 1.83334C13.9885 1.83334 13.6897 2.13584 13.6897 2.54009V5.335C13.6897 5.73925 13.9885 6.04084 14.387 6.04084Z" fill="#868A8F"/>
</g>
<defs>
<clipPath id="clip0">
<rect width="22" height="22" fill="white"/>
</clipPath>
</defs>
</svg>
