<svg width="20" height="20" viewBox="0 0 20 20" fill="none" xmlns="http://www.w3.org/2000/svg">
<g clip-path="url(#clip0)">
<path d="M13.6166 1.66652H6.39156C3.56656 1.66652 1.66656 1.14985 1.66656 4.09985V6.74152C1.66656 9.68318 3.56656 9.16652 6.39156 9.16652H13.6166C16.4416 9.16652 18.3332 9.68318 18.3332 6.74152V4.09985C18.3332 1.14985 16.4416 1.66652 13.6166 1.66652Z" fill="#BED1F6"/>
<path opacity="0.4" fill-rule="evenodd" clip-rule="evenodd" d="M8.05825 1.66651H11.9499C14.7749 1.66651 16.6666 3.64985 16.6666 6.59984V13.4082C16.6666 16.3498 14.7749 18.3332 11.9499 18.3332H8.05825C5.23325 18.3332 3.33325 16.3498 3.33325 13.4082V6.59984C3.33325 3.64985 5.23325 1.66651 8.05825 1.66651ZM7.91669 10.8333C7.68657 10.8333 7.50002 11.0199 7.50002 11.25C7.50002 11.4801 7.68657 11.6667 7.91669 11.6667H12.0834C12.3135 11.6667 12.5 11.4801 12.5 11.25C12.5 11.0199 12.3135 10.8333 12.0834 10.8333H7.91669Z" fill="#BED1F6"/>
</g>
<defs>
<clipPath id="clip0">
<rect width="20" height="20" fill="white"/>
</clipPath>
</defs>
</svg>
