<svg width="20" height="20" viewBox="0 0 20 20" fill="none" xmlns="http://www.w3.org/2000/svg">
<g clip-path="url(#clip0)">
<path fill-rule="evenodd" clip-rule="evenodd" d="M1.66666 10C1.66666 5.61667 5.17499 1.66667 10.0167 1.66667C14.75 1.66667 18.3333 5.54167 18.3333 9.97501C18.3333 15.1167 14.1333 18.3083 9.99999 18.3083C8.63332 18.3083 7.11749 17.9417 5.90082 17.225C5.47499 16.9667 5.11666 16.775 4.65832 16.925L2.97499 17.425C2.54999 17.5583 2.16666 17.225 2.29166 16.775L2.84999 14.9083C2.94166 14.65 2.92499 14.375 2.79166 14.1583C2.07499 12.8417 1.66666 11.4 1.66666 10ZM8.91706 10.0001C8.91706 10.5918 9.39206 11.0668 9.98373 11.0751C10.5754 11.0751 11.0504 10.5918 11.0504 10.0084C11.0504 9.41676 10.5754 8.94176 9.98373 8.94176C9.4004 8.93343 8.91706 9.41676 8.91706 10.0001ZM5.07506 10.0084C5.07506 10.5918 5.5584 11.0751 6.14173 11.0751C6.7334 11.0668 7.2084 10.5918 7.2084 10.0084C7.2084 9.41678 6.7334 8.94178 6.14173 8.94178C5.55006 8.94178 5.07506 9.41678 5.07506 10.0084ZM13.8252 11.0751C13.2336 11.0751 12.7586 10.5918 12.7586 10.0084C12.7586 9.41676 13.2336 8.94176 13.8252 8.94176C14.4169 8.94176 14.8919 9.41676 14.8919 10.0084C14.8919 10.5918 14.4169 11.0751 13.8252 11.0751Z" fill="#A1B1CA"/>
</g>
<defs>
<clipPath id="clip0">
<rect width="20" height="20" fill="white"/>
</clipPath>
</defs>
</svg>
