<svg width="36" height="36" viewBox="0 0 36 36" fill="none" xmlns="http://www.w3.org/2000/svg">
<rect x="3.5" y="4.5" width="25" height="30" rx="1.5" fill="white" stroke="#4988FD" stroke-width="3"/>
<rect x="7" y="9" width="18" height="22" rx="1" fill="#DBE6FE"/>
<rect x="11" y="2" width="10" height="5" rx="1" fill="#3670DA"/>
<rect x="14" width="4" height="6" rx="1" fill="#3670DA"/>
<rect x="14" y="13.5" width="9" height="2" rx="1" fill="#4988FD"/>
<circle cx="10.5" cy="14.5" r="1.5" fill="#4988FD"/>
<rect x="14" y="18.5" width="9" height="2" rx="1" fill="#4988FD"/>
<circle cx="10.5" cy="19.5" r="1.5" fill="#4988FD"/>
<rect x="14" y="23.5" width="9" height="2" rx="1" fill="#4988FD"/>
<circle cx="10.5" cy="24.5" r="1.5" fill="#4988FD"/>
<circle cx="28.5" cy="23.5" r="7.5" fill="#F66363"/>
<rect x="30.8708" y="19.6" width="1.75" height="8.98952" rx="0.875" transform="rotate(42.2388 30.8708 19.6)" fill="white"/>
<rect x="32.2942" y="26.0755" width="1.75" height="8.98952" rx="0.875" transform="rotate(135 32.2942 26.0755)" fill="white"/>
</svg>
