<svg width="17" height="16" viewBox="0 0 17 16" fill="none" xmlns="http://www.w3.org/2000/svg">
<path fill-rule="evenodd" clip-rule="evenodd" d="M8.30632 14.6667C11.9882 14.6667 14.973 11.6819 14.973 8C14.973 4.3181 11.9882 1.33333 8.30632 1.33333C4.62442 1.33333 1.63965 4.3181 1.63965 8C1.63965 11.6819 4.62442 14.6667 8.30632 14.6667ZM11.6062 11.2998C11.3459 11.5602 10.9238 11.5602 10.6634 11.2998L8.30634 8.94273L5.94927 11.2998C5.68892 11.5602 5.26681 11.5602 5.00646 11.2998C4.74611 11.0395 4.74611 10.6173 5.00646 10.357L7.36353 7.99992L5.00656 5.64295C4.74621 5.3826 4.74621 4.96049 5.00656 4.70014C5.26691 4.43979 5.68902 4.43979 5.94937 4.70014L8.30634 7.05711L10.6633 4.70014C10.9237 4.43979 11.3458 4.43979 11.6061 4.70014C11.8665 4.96049 11.8665 5.3826 11.6061 5.64295L9.24915 7.99992L11.6062 10.357C11.8666 10.6173 11.8666 11.0395 11.6062 11.2998Z" fill="#C2CAD7"/>
</svg>
