<svg width="24" height="24" viewBox="0 0 24 24" fill="none" xmlns="http://www.w3.org/2000/svg">
<g clip-path="url(#clip0)">
<path opacity="0.4" fill-rule="evenodd" clip-rule="evenodd" d="M10.1863 18.184C13.1075 20.1924 17.1352 19.898 19.7322 17.301C22.6612 14.3721 22.6612 9.62337 19.7322 6.69444C17.1352 4.09745 13.1076 3.80313 10.1863 5.81146C10.5597 6.06816 10.915 6.36248 11.2469 6.69442C14.1759 9.62335 14.1759 14.3721 11.2469 17.301C10.915 17.633 10.5597 17.9273 10.1863 18.184Z" fill="#2664DF"/>
<path fill-rule="evenodd" clip-rule="evenodd" d="M11.2469 6.69436C10.915 6.36242 10.5597 6.0681 10.1863 5.8114C10.1863 5.8114 10.1863 5.81141 10.1863 5.81141C10.5597 6.06811 10.915 6.36243 11.2469 6.69437C13.1871 8.63454 13.8421 11.3732 13.2118 13.8526C13.8421 11.3732 13.1871 8.63454 11.2469 6.69436ZM9.36231 17.5277C9.78095 17.2684 10.1765 16.9571 10.5398 16.5939C13.0782 14.0555 13.0782 9.93988 10.5398 7.40147C10.1765 7.0382 9.78096 6.72691 9.36233 6.46761C9.28219 6.54114 9.20326 6.61673 9.12562 6.69438C6.19668 9.62331 6.19668 14.372 9.12562 17.301C9.20326 17.3786 9.28218 17.4542 9.36231 17.5277Z" fill="#2664DF"/>
<path opacity="0.4" d="M2 12C2 10 2.57485 6.72167 5 5C5.04876 4.96539 5.10021 4.93083 5.15377 4.89647C5.85576 4.44618 6.65944 5.17247 6.45558 5.98117C6.02645 7.68355 5.5 10.1492 5.5 12C5.5 13.8508 6.02645 16.3164 6.45558 18.0188C6.65944 18.8275 5.85576 19.5538 5.15377 19.1035C5.10021 19.0692 5.04876 19.0346 5 19C2.57485 17.2783 2 14 2 12Z" fill="#2664DF"/>
</g>
<defs>
<clipPath id="clip0">
<rect width="24" height="24" fill="white"/>
</clipPath>
</defs>
</svg>
