<svg width="20" height="20" viewBox="0 0 20 20" fill="none" xmlns="http://www.w3.org/2000/svg">
<g clip-path="url(#clip0)">
<path d="M7.61976 17.3184V14.7627C7.61974 14.1151 8.14637 13.5889 8.79868 13.5849H11.1938C11.849 13.5849 12.3802 14.1122 12.3802 14.7627V17.311C12.3802 17.8727 12.8367 18.3292 13.4024 18.3333H15.0365C15.7997 18.3353 16.5323 18.0357 17.0726 17.5006C17.613 16.9655 17.9166 16.239 17.9166 15.4813V8.22154C17.9166 7.60949 17.6434 7.02893 17.1705 6.63625L11.6191 2.22856C10.6487 1.4576 9.26279 1.48251 8.32114 2.28782L2.88916 6.63625C2.39393 7.01735 2.09794 7.59964 2.08331 8.22154V15.4739C2.08331 17.0531 3.3728 18.3333 4.96346 18.3333H6.56022C6.83262 18.3353 7.09455 18.2292 7.28787 18.0387C7.4812 17.8481 7.58992 17.5889 7.58991 17.3184H7.61976Z" fill="#BED1F6"/>
</g>
<defs>
<clipPath id="clip0">
<rect width="20" height="20" fill="white"/>
</clipPath>
</defs>
</svg>
