<svg width="41" height="40" viewBox="0 0 41 40" fill="none" xmlns="http://www.w3.org/2000/svg">
<g clip-path="url(#clip0)">
<path fill-rule="evenodd" clip-rule="evenodd" d="M26.2354 23.0871L24.8455 32.1673C24.764 32.7002 25.2748 33.1308 25.7862 32.9603L28.1126 32.1848L29.4494 36.093C29.5783 36.4697 29.9913 36.6804 30.372 36.5636L32.5329 35.9006C32.9136 35.7838 33.1177 35.3837 32.9888 35.0069L31.6232 31.0146L33.5692 30.366C34.0755 30.1972 34.2293 29.556 33.8547 29.1759L27.4615 22.69C27.0451 22.2676 26.3251 22.5007 26.2354 23.0871Z" fill="#C2CAD7"/>
<path fill-rule="evenodd" clip-rule="evenodd" d="M3.8335 9.44833C3.8335 6.07112 6.57127 3.33334 9.94849 3.33334H27.7185C31.0957 3.33334 33.8335 6.07112 33.8335 9.44833V22.993V24.098V26.0012L30.776 22.6143V20.1266L26.4283 16.0506C26.0561 15.7016 25.4768 15.7016 25.1046 16.0506L21.0789 19.8247L15.826 14.2434C15.4439 13.8374 14.7987 13.8374 14.4166 14.2434L6.89099 22.2393V27.2184C6.89099 28.907 8.25988 30.2758 9.94848 30.2758H22.9488L22.5081 33.3333H9.94848C6.57127 33.3333 3.8335 30.5956 3.8335 27.2184V9.44833ZM30.3831 10.385C30.3831 11.9884 29.0833 13.2882 27.4799 13.2882C25.8764 13.2882 24.5766 11.9884 24.5766 10.385C24.5766 8.78156 25.8764 7.48174 27.4799 7.48174C29.0833 7.48174 30.3831 8.78156 30.3831 10.385Z" fill="#C2CAD7"/>
</g>
<defs>
<clipPath id="clip0">
<rect width="40" height="40" fill="white" transform="translate(0.5)"/>
</clipPath>
</defs>
</svg>
