<svg width="20" height="20" viewBox="0 0 20 20" fill="none" xmlns="http://www.w3.org/2000/svg">
<g clip-path="url(#clip0)">
<path fill-rule="evenodd" clip-rule="evenodd" d="M6.39163 1.66699H13.6166C16.4416 1.66699 18.3333 3.65033 18.3333 6.60033V13.4087C18.3333 16.3503 16.4416 18.3337 13.6166 18.3337H6.39163C3.56663 18.3337 1.66663 16.3503 1.66663 13.4087V6.60033C1.66663 3.65033 3.56663 1.66699 6.39163 1.66699ZM9.98927 7.50045C9.30694 7.50045 8.74996 6.93902 8.74996 6.25045C8.74996 5.56188 9.31264 5.00045 10.0035 5.00045C10.6916 5.00045 11.25 5.56188 11.25 6.25045C11.25 6.93902 10.6916 7.50045 9.98927 7.50045ZM8.95829 10.2088C8.95829 9.63349 9.42466 9.16712 9.99996 9.16712C10.5753 9.16712 11.0416 9.63349 11.0416 10.2088V13.9588C11.0416 14.5341 10.5753 15.0005 9.99996 15.0005C9.42466 15.0005 8.95829 14.5341 8.95829 13.9588V10.2088Z" fill="#BED1F6"/>
</g>
<defs>
<clipPath id="clip0">
<rect width="20" height="20" fill="white"/>
</clipPath>
</defs>
</svg>
