<svg width="161" height="160" viewBox="0 0 161 160" fill="none" xmlns="http://www.w3.org/2000/svg">
<mask id="mask0" mask-type="alpha" maskUnits="userSpaceOnUse" x="0" y="0" width="161" height="160">
<rect x="0.5" width="160" height="160" fill="white"/>
</mask>
<g mask="url(#mask0)">
<g opacity="0.601676">
<path opacity="0.56" fill-rule="evenodd" clip-rule="evenodd" d="M132 121L124.75 106.5L112 132H137.5L137.5 132H148L137.25 110.5L132 121Z" fill="url(#paint0_linear)"/>
<path fill-rule="evenodd" clip-rule="evenodd" d="M46.5441 125H144.5V141.5H55.1045L46.5441 125Z" fill="url(#paint1_linear)"/>
<path opacity="0.56" fill-rule="evenodd" clip-rule="evenodd" d="M38.0659 129.631L30.5 114.5L17 141.5H44L43.9999 141.499H55.0001L43.5001 118.999L38.0659 129.631Z" fill="url(#paint2_linear)"/>
<path fill-rule="evenodd" clip-rule="evenodd" d="M100.949 92.4994H110.008L116.874 114.12C118.914 120.545 114.119 127.098 107.378 127.098H97.8434C90.109 127.098 85.3243 118.669 89.2893 112.028L100.949 92.4994Z" fill="url(#paint3_linear)"/>
<path fill-rule="evenodd" clip-rule="evenodd" d="M56.9171 57.1231L63.2691 50.7711L108.996 91.206C109.06 91.2588 109.123 91.314 109.183 91.3717L109.196 91.383L109.196 91.3835C109.212 91.3991 109.228 91.4148 109.244 91.4307C111.298 93.4847 110.351 97.7616 107.129 100.983C103.908 104.205 99.6308 105.152 97.5768 103.098C97.5609 103.082 97.5451 103.066 97.5296 103.05L97.529 103.05L97.5161 103.036C97.4596 102.976 97.4054 102.915 97.3537 102.852L56.9171 57.1231Z" fill="url(#paint4_linear)"/>
<path fill-rule="evenodd" clip-rule="evenodd" d="M32.4409 106.2C46.4517 103.576 64.5679 94.6775 82.6956 76.5498C100.919 58.3263 109.815 40.1143 112.387 26.0732C112.683 26.3101 112.966 26.5632 113.235 26.8327C122.57 36.1678 122.791 64.7886 96.9332 90.6464C71.0753 116.504 42.4545 116.284 33.1194 106.948C32.8803 106.709 32.6542 106.46 32.4409 106.2Z" fill="url(#paint5_linear)"/>
<path fill-rule="evenodd" clip-rule="evenodd" d="M85.2657 78.9794C63.1424 101.103 39.5885 113.418 32.6567 106.486C25.7249 99.5543 38.0401 76.0005 60.1634 53.8771C82.2868 31.7537 105.841 19.4385 112.772 26.3703C119.704 33.3021 107.389 56.856 85.2657 78.9794Z" fill="url(#paint6_linear)"/>
<path opacity="0.01" fill-rule="evenodd" clip-rule="evenodd" d="M85.125 79.1198C107.248 56.9965 119.564 33.4426 112.632 26.5108C105.7 19.579 82.1461 31.8942 60.0227 54.0175C37.8994 76.1409 25.5842 99.6947 32.516 106.627C39.4478 113.558 63.0017 101.243 85.125 79.1198Z" fill="url(#paint7_linear)"/>
<mask id="mask1" mask-type="alpha" maskUnits="userSpaceOnUse" x="30" y="24" width="85" height="85">
<path fill-rule="evenodd" clip-rule="evenodd" d="M85.125 79.1198C107.248 56.9965 119.564 33.4426 112.632 26.5108C105.7 19.579 82.1461 31.8942 60.0227 54.0175C37.8994 76.1409 25.5842 99.6947 32.516 106.627C39.4478 113.558 63.0017 101.243 85.125 79.1198Z" fill="white"/>
</mask>
<g mask="url(#mask1)">
<path fill-rule="evenodd" clip-rule="evenodd" d="M69.4475 69.8712C69.4169 69.1966 70.5799 67.502 72.2938 65.7882C74.2447 63.8372 76.1707 62.6001 76.5956 63.0249C76.6496 63.079 76.6768 63.1574 76.679 63.2571L76.687 63.2497L76.4076 86.8053L69.3 93.913L69.3767 69.936L69.4475 69.8712Z" fill="url(#paint8_linear)"/>
</g>
<path fill-rule="evenodd" clip-rule="evenodd" d="M46.472 43.2702L50.1366 39.6057L76.4763 62.897C76.5105 62.9193 76.5421 62.9449 76.5709 62.9737C76.5829 62.9856 76.5942 62.998 76.605 63.0108L76.6325 63.0351L76.6278 63.0398C77.1488 63.746 76.1672 65.703 74.3683 67.5019C72.5693 69.3009 70.6123 70.2825 69.9061 69.7615L69.9015 69.7661L69.8776 69.7391C69.8646 69.7282 69.852 69.7167 69.84 69.7046C69.811 69.6757 69.7854 69.6439 69.763 69.6095L46.472 43.2702Z" fill="url(#paint9_linear)"/>
<path fill-rule="evenodd" clip-rule="evenodd" d="M52.6707 45.8379C50.6614 47.8472 47.4038 47.8472 45.3945 45.8379C43.3852 43.8287 43.3852 40.571 45.3945 38.5617C47.4038 36.5525 50.6614 36.5525 52.6707 38.5617C54.68 40.571 54.68 43.8287 52.6707 45.8379Z" fill="url(#paint10_linear)"/>
<path opacity="0.01" fill-rule="evenodd" clip-rule="evenodd" d="M43.7232 47.4188L40.5534 65.7063L25.4358 50.5887L43.7232 47.4188Z" fill="#BED1F6"/>
<mask id="mask2" mask-type="alpha" maskUnits="userSpaceOnUse" x="25" y="47" width="19" height="19">
<path fill-rule="evenodd" clip-rule="evenodd" d="M43.7232 47.4188L40.5534 65.7063L25.4358 50.5887L43.7232 47.4188Z" fill="white"/>
</mask>
<g mask="url(#mask2)">
<path d="M33.1605 47.4884C33.5123 50.5152 34.5836 52.9093 36.3713 54.6971C38.159 56.4848 40.5532 57.5561 43.58 57.9079L43.4208 59.278C40.0983 58.8918 37.4146 57.691 35.396 55.6724C33.3774 53.6538 32.1766 50.9701 31.7904 47.6476L33.1605 47.4884Z" fill="url(#paint11_linear)"/>
<path d="M37.0618 47.488C37.2854 49.4113 37.9617 50.9228 39.0879 52.049C40.214 53.1752 41.7256 53.8515 43.6488 54.075L43.4896 55.4451C41.2706 55.1873 39.4695 54.3813 38.1125 53.0243C36.7555 51.6673 35.9496 49.8662 35.6917 47.6473L37.0618 47.488Z" fill="url(#paint12_linear)"/>
<path d="M40.8416 46.8787C40.9582 47.8823 41.3054 48.6584 41.8803 49.2333C42.4551 49.8081 43.2312 50.1554 44.2348 50.272L44.0756 51.6421C42.7763 51.4911 41.7106 51.0143 40.905 50.2086C40.0993 49.4029 39.6225 48.3373 39.4715 47.038L40.8416 46.8787Z" fill="url(#paint13_linear)"/>
</g>
<path opacity="0.01" fill-rule="evenodd" clip-rule="evenodd" d="M53.8221 37.3199L72.1096 34.1501L56.992 19.0325L53.8221 37.3199Z" fill="#BED1F6"/>
<mask id="mask3" mask-type="alpha" maskUnits="userSpaceOnUse" x="53" y="19" width="20" height="19">
<path fill-rule="evenodd" clip-rule="evenodd" d="M53.8221 37.3199L72.1096 34.1501L56.992 19.0325L53.8221 37.3199Z" fill="white"/>
</mask>
<g mask="url(#mask3)">
<path d="M53.8918 26.7573C56.9186 27.1091 59.3127 28.1804 61.1005 29.9681C62.8882 31.7558 63.9595 34.15 64.3113 37.1768L65.6814 37.0176C65.2952 33.6951 64.0944 31.0114 62.0758 28.9928C60.0572 26.9742 57.3735 25.7733 54.051 25.3872L53.8918 26.7573Z" fill="url(#paint14_linear)"/>
<path d="M53.8916 30.6587C55.8148 30.8822 57.3264 31.5586 58.4525 32.6847C59.5787 33.8109 60.2551 35.3224 60.4786 37.2457L61.8487 37.0865C61.5908 34.8675 60.7849 33.0664 59.4279 31.7094C58.0709 30.3524 56.2697 29.5465 54.0508 29.2886L53.8916 30.6587Z" fill="url(#paint15_linear)"/>
<path d="M53.2822 34.4382C54.2857 34.5548 55.0618 34.902 55.6367 35.4769C56.2115 36.0517 56.5588 36.8278 56.6754 37.8314L58.0455 37.6722C57.8945 36.3729 57.4177 35.3072 56.612 34.5016C55.8063 33.6959 54.7407 33.219 53.4414 33.068L53.2822 34.4382Z" fill="url(#paint16_linear)"/>
</g>
</g>
</g>
<defs>
<linearGradient id="paint0_linear" x1="163.896" y1="137.419" x2="162.753" y2="102.002" gradientUnits="userSpaceOnUse">
<stop stop-color="white" stop-opacity="0.01"/>
<stop offset="1" stop-color="#7DA2EC"/>
</linearGradient>
<linearGradient id="paint1_linear" x1="309.801" y1="141.782" x2="309.034" y2="72.9553" gradientUnits="userSpaceOnUse">
<stop stop-color="white" stop-opacity="0.01"/>
<stop offset="1" stop-color="#2664DF"/>
</linearGradient>
<linearGradient id="paint2_linear" x1="66.5385" y1="144.056" x2="66.5385" y2="110.629" gradientUnits="userSpaceOnUse">
<stop stop-color="white" stop-opacity="0.01"/>
<stop offset="1" stop-color="#7DA2EC"/>
</linearGradient>
<linearGradient id="paint3_linear" x1="74.4846" y1="87.8596" x2="71.8533" y2="147.584" gradientUnits="userSpaceOnUse">
<stop stop-color="#E3ECFF"/>
<stop offset="1" stop-color="#7DA2EC"/>
</linearGradient>
<linearGradient id="paint4_linear" x1="83.9469" y1="91.99" x2="98.4813" y2="71.8961" gradientUnits="userSpaceOnUse">
<stop stop-color="#F4F7FD"/>
<stop offset="1" stop-color="#7DA2EC"/>
</linearGradient>
<linearGradient id="paint5_linear" x1="27.9707" y1="115.216" x2="200.05" y2="42.8284" gradientUnits="userSpaceOnUse">
<stop stop-color="#7DA2EC"/>
<stop offset="1" stop-color="#E3ECFF"/>
</linearGradient>
<linearGradient id="paint6_linear" x1="60.1718" y1="162.847" x2="-38.8015" y2="98.0167" gradientUnits="userSpaceOnUse">
<stop stop-color="#F4F7FD"/>
<stop offset="1" stop-color="#7DA2EC"/>
</linearGradient>
<linearGradient id="paint7_linear" x1="-60.6473" y1="225.157" x2="78.7298" y2="240.255" gradientUnits="userSpaceOnUse">
<stop stop-color="#F4F7FD"/>
<stop offset="1" stop-color="#7DA2EC"/>
</linearGradient>
<linearGradient id="paint8_linear" x1="33.6444" y1="165.157" x2="-4.91292" y2="98.542" gradientUnits="userSpaceOnUse">
<stop stop-color="#BED1F6"/>
<stop offset="1" stop-color="#A1B1CA"/>
</linearGradient>
<linearGradient id="paint9_linear" x1="30.7569" y1="10.4945" x2="82.6296" y2="62.3672" gradientUnits="userSpaceOnUse">
<stop stop-color="white"/>
<stop offset="1" stop-color="#F48924"/>
</linearGradient>
<linearGradient id="paint10_linear" x1="43.9901" y1="23.2066" x2="57.9408" y2="37.1573" gradientUnits="userSpaceOnUse">
<stop stop-color="white"/>
<stop offset="1" stop-color="#F48924"/>
</linearGradient>
<linearGradient id="paint11_linear" x1="82.8513" y1="75.4905" x2="65.6471" y2="92.6947" gradientUnits="userSpaceOnUse">
<stop stop-color="white"/>
<stop offset="1" stop-color="#F48924"/>
</linearGradient>
<linearGradient id="paint12_linear" x1="71.0851" y1="65.1569" x2="58.1121" y2="78.1298" gradientUnits="userSpaceOnUse">
<stop stop-color="white"/>
<stop offset="1" stop-color="#F48924"/>
</linearGradient>
<linearGradient id="paint13_linear" x1="61.8086" y1="55.9365" x2="52.3616" y2="65.3835" gradientUnits="userSpaceOnUse">
<stop stop-color="white"/>
<stop offset="1" stop-color="#F48924"/>
</linearGradient>
<linearGradient id="paint14_linear" x1="81.8939" y1="76.4482" x2="99.0982" y2="59.244" gradientUnits="userSpaceOnUse">
<stop stop-color="white"/>
<stop offset="1" stop-color="#F48924"/>
</linearGradient>
<linearGradient id="paint15_linear" x1="71.5604" y1="64.6821" x2="84.5334" y2="51.7091" gradientUnits="userSpaceOnUse">
<stop stop-color="white"/>
<stop offset="1" stop-color="#F48924"/>
</linearGradient>
<linearGradient id="paint16_linear" x1="62.3399" y1="55.4054" x2="71.7869" y2="45.9583" gradientUnits="userSpaceOnUse">
<stop stop-color="white"/>
<stop offset="1" stop-color="#F48924"/>
</linearGradient>
</defs>
</svg>
