<svg width="20" height="20" viewBox="0 0 20 20" fill="none" xmlns="http://www.w3.org/2000/svg">
<g clip-path="url(#clip0)">
<path fill-rule="evenodd" clip-rule="evenodd" d="M6.39163 1.66699H13.6166C16.4416 1.66699 18.3333 3.65033 18.3333 6.60033V13.4087C18.3333 16.3503 16.4416 18.3337 13.6166 18.3337H6.39163C3.56663 18.3337 1.66663 16.3503 1.66663 13.4087V6.60033C1.66663 3.65033 3.56663 1.66699 6.39163 1.66699ZM5.99996 8.33381C5.44767 8.33381 4.99996 8.78153 4.99996 9.33381V10.6671C4.99996 11.2194 5.44767 11.6671 5.99996 11.6671H14C14.5522 11.6671 15 11.2194 15 10.6671V9.33381C15 8.78153 14.5522 8.33381 14 8.33381H5.99996ZM4.99996 13.9588C4.99996 13.6136 5.27978 13.3338 5.62496 13.3338H14.375C14.7201 13.3338 15 13.6136 15 13.9588C15 14.304 14.7201 14.5838 14.375 14.5838H5.62496C5.27978 14.5838 4.99996 14.304 4.99996 13.9588ZM5.99996 6.00048C6.55224 6.00048 6.99996 5.55276 6.99996 5.00048C6.99996 4.44819 6.55224 4.00048 5.99996 4.00048C5.44767 4.00048 4.99996 4.44819 4.99996 5.00048C4.99996 5.55276 5.44767 6.00048 5.99996 6.00048ZM9.99996 5.00048C9.99996 5.55276 9.55224 6.00048 8.99996 6.00048C8.44767 6.00048 7.99996 5.55276 7.99996 5.00048C7.99996 4.44819 8.44767 4.00048 8.99996 4.00048C9.55224 4.00048 9.99996 4.44819 9.99996 5.00048ZM12 6.00048C12.5522 6.00048 13 5.55276 13 5.00048C13 4.44819 12.5522 4.00048 12 4.00048C11.4477 4.00048 11 4.44819 11 5.00048C11 5.55276 11.4477 6.00048 12 6.00048Z" fill="#BED1F6"/>
</g>
<defs>
<clipPath id="clip0">
<rect width="20" height="20" fill="white"/>
</clipPath>
</defs>
</svg>
