<svg width="160" height="160" viewBox="0 0 160 160" fill="none" xmlns="http://www.w3.org/2000/svg">
<mask id="mask0" mask-type="alpha" maskUnits="userSpaceOnUse" x="0" y="0" width="160" height="160">
<rect width="160" height="160" fill="white"/>
</mask>
<g mask="url(#mask0)">
<g opacity="0.793082">
<path opacity="0.6" fill-rule="evenodd" clip-rule="evenodd" d="M78.75 173.75C127.075 173.75 166.25 158.919 166.25 140.625C166.25 122.331 127.075 107.5 78.75 107.5C30.4251 107.5 -8.75 122.331 -8.75 140.625C-8.75 158.919 30.4251 173.75 78.75 173.75Z" fill="url(#paint0_linear)"/>
<rect x="39.0586" y="43.061" width="74" height="89.9999" rx="9.96283" transform="rotate(-5.00001 39.0586 43.061)" fill="url(#paint1_linear)"/>
<mask id="mask1" mask-type="alpha" maskUnits="userSpaceOnUse" x="39" y="37" width="81" height="95">
<rect x="39.0586" y="43.061" width="74" height="89.9999" rx="9.96283" transform="rotate(-5.00001 39.0586 43.061)" fill="white"/>
</mask>
<g mask="url(#mask1)">
<path opacity="0.3" fill-rule="evenodd" clip-rule="evenodd" d="M6.75406 18.7467C6.2745 13.2653 10.3293 8.43302 15.8107 7.95346L77.9028 2.52111C84.3313 1.95869 89.5902 7.56279 88.6208 13.9427L68.5138 146.273C67.8231 150.818 64.1121 154.301 59.5323 154.701L28.884 157.383C23.4027 157.862 18.5704 153.807 18.0908 148.326L6.75406 18.7467Z" fill="white"/>
</g>
<rect x="50.5771" y="37.0337" width="50.0001" height="12" rx="6.00001" transform="rotate(-5 50.5771 37.0337)" fill="url(#paint2_linear)"/>
<rect x="55.832" y="62.6733" width="44" height="4.5" rx="2.25" transform="rotate(-5 55.832 62.6733)" fill="white"/>
<rect x="56.9219" y="75.126" width="44.0001" height="4.50002" rx="2.25001" transform="rotate(-4.99999 56.9219 75.126)" fill="white"/>
<rect width="32" height="4.49996" rx="2.24998" transform="matrix(0.996195 -0.0871549 0.0871566 0.996195 58.0107 87.5781)" fill="white"/>
<path fill-rule="evenodd" clip-rule="evenodd" d="M133.977 19.5196L134.343 32.931L123.468 27.8596L133.977 19.5196Z" fill="url(#paint3_linear)"/>
<path fill-rule="evenodd" clip-rule="evenodd" d="M28.0091 91.2857L28.3756 104.697L17.4999 99.6257L28.0091 91.2857Z" fill="url(#paint4_linear)"/>
<path fill-rule="evenodd" clip-rule="evenodd" d="M134.963 135.448L135.209 144.43L127.925 141.034L134.963 135.448Z" fill="url(#paint5_linear)"/>
<path fill-rule="evenodd" clip-rule="evenodd" d="M130.159 62.7206C127.548 61.8216 124.703 63.2094 123.804 65.8204L109.851 106.343L109.851 106.343L112.253 114.724L119.306 109.598L119.306 109.598L119.306 109.598L133.259 69.076C134.158 66.4651 132.77 63.6196 130.159 62.7206Z" fill="url(#paint6_linear)"/>
</g>
</g>
<defs>
<linearGradient id="paint0_linear" x1="185.491" y1="143.362" x2="185.491" y2="69.3957" gradientUnits="userSpaceOnUse">
<stop stop-color="white" stop-opacity="0.01"/>
<stop offset="1" stop-color="#2664DF"/>
</linearGradient>
<linearGradient id="paint1_linear" x1="-84.8365" y1="109.667" x2="114.028" y2="366.51" gradientUnits="userSpaceOnUse">
<stop stop-color="#E3ECFF"/>
<stop offset="1" stop-color="#7DA2EC"/>
</linearGradient>
<linearGradient id="paint2_linear" x1="-106.741" y1="21.2749" x2="-104.101" y2="102.894" gradientUnits="userSpaceOnUse">
<stop stop-color="#E3ECFF"/>
<stop offset="1" stop-color="#2664DF"/>
</linearGradient>
<linearGradient id="paint3_linear" x1="5.42376" y1="109.757" x2="155.25" y2="273.077" gradientUnits="userSpaceOnUse">
<stop stop-color="#E3ECFF"/>
<stop offset="1" stop-color="#7DA2EC"/>
</linearGradient>
<linearGradient id="paint4_linear" x1="-100.544" y1="181.523" x2="49.2825" y2="344.843" gradientUnits="userSpaceOnUse">
<stop stop-color="#E3ECFF"/>
<stop offset="1" stop-color="#7DA2EC"/>
</linearGradient>
<linearGradient id="paint5_linear" x1="48.8676" y1="195.883" x2="149.21" y2="305.262" gradientUnits="userSpaceOnUse">
<stop stop-color="#BED1F6"/>
<stop offset="1" stop-color="#7DA2EC"/>
</linearGradient>
<linearGradient id="paint6_linear" x1="129.979" y1="36.0326" x2="98.253" y2="128.172" gradientUnits="userSpaceOnUse">
<stop stop-color="white"/>
<stop offset="1" stop-color="#F48924"/>
</linearGradient>
</defs>
</svg>
