<svg width="20" height="20" viewBox="0 0 20 20" fill="none" xmlns="http://www.w3.org/2000/svg">
<g clip-path="url(#clip0)">
<path opacity="0.4" d="M14.0703 4.26238H11.6177C11.0067 4.26641 10.4267 3.99463 10.0395 3.52293L9.23185 2.40636C8.85115 1.93052 8.27109 1.65746 7.66102 1.66691H5.92718C2.81517 1.66691 1.66669 3.49335 1.66669 6.59904V9.95614C1.66505 10.1123 4.64569 10.2023 8.08624 10.2263C8.72681 10.2308 8.75002 6.66667 10 6.66667C11.25 6.66667 11.2896 10.2306 11.9001 10.2263C15.3441 10.2023 18.3303 10.1122 18.3308 9.95614V8.98006C18.3456 5.87438 17.2268 4.26238 14.0703 4.26238Z" fill="#BED1F6"/>
<path fill-rule="evenodd" clip-rule="evenodd" d="M17.9677 6.51031C17.8328 6.12322 17.6267 5.76463 17.3601 5.45289C17.2763 5.35445 17.1846 5.26295 17.086 5.1793C16.2294 4.50562 15.1502 4.17829 14.0629 4.26238H5.91237C3.97106 4.26238 2.78553 4.89091 2.20759 6.12579C2.01249 6.52592 1.87528 6.95165 1.80006 7.39025C1.80006 7.49194 1.7798 7.59362 1.75917 7.69711C1.7468 7.75919 1.7343 7.82192 1.72597 7.88568C1.68633 8.24914 1.66654 8.61447 1.66669 8.98007V13.3576C1.66653 13.7267 1.69626 14.0951 1.7556 14.4594C1.84893 15.1031 2.07065 15.7217 2.40764 16.2784C2.56116 16.5471 2.74786 16.7956 2.96336 17.0179C3.95387 17.9238 5.2671 18.3952 6.60886 18.3267H13.3812C14.7208 18.3957 16.0319 17.9241 17.0193 17.0179C17.2374 16.796 17.4266 16.5476 17.5824 16.2784C17.9214 15.7213 18.148 15.1033 18.2493 14.4594C18.3025 14.0945 18.3297 13.7263 18.3308 13.3576V8.98007C18.3561 8.14192 18.2332 7.30588 17.9677 6.51031ZM9.33728 12.1176H6.64197C6.2614 12.1176 5.95288 11.8097 5.95288 11.4299C5.95288 11.0501 6.2614 10.7422 6.64197 10.7422H9.33728V8.0259C9.3396 7.82066 9.43823 7.6285 9.60348 7.50723C9.72646 7.4018 9.88564 7.34863 10.0472 7.35904C10.2309 7.3648 10.4047 7.44405 10.5297 7.57909C10.6548 7.71414 10.7207 7.89372 10.7127 8.07776V8.09258V10.7422H13.4296C13.6348 10.7445 13.827 10.8431 13.9483 11.0084C14.0537 11.1314 14.1069 11.2906 14.0965 11.4521C14.0907 11.6358 14.0115 11.8096 13.8764 11.9346C13.7414 12.0597 13.5618 12.1256 13.3777 12.1176H13.3629H10.7127V14.8135C10.7127 15.1941 10.4048 15.5026 10.025 15.5026C9.64517 15.5026 9.33728 15.1941 9.33728 14.8135V12.1176Z" fill="#BED1F6"/>
</g>
<defs>
<clipPath id="clip0">
<rect width="20" height="20" fill="white"/>
</clipPath>
</defs>
</svg>
