<svg width="16" height="16" viewBox="0 0 16 16" fill="none" xmlns="http://www.w3.org/2000/svg">
<g clip-path="url(#clip0)">
<path fill-rule="evenodd" clip-rule="evenodd" d="M12.3158 3.9476C12.3735 3.98219 12.4486 3.96685 12.4832 3.90918C12.4985 3.88375 12.5137 3.85853 12.5288 3.83349C12.96 3.11839 13.3025 2.55049 11.8752 1.6946C10.4478 0.838693 10.1083 1.40785 9.68061 2.12491C9.66559 2.15009 9.65046 2.17545 9.63517 2.20094C9.60058 2.25861 9.62241 2.33209 9.68007 2.36668L12.3158 3.9476Z" fill="#2664DF"/>
<path d="M8.84799 3.52028C9.02547 3.22026 9.41323 3.12201 9.71216 3.30131L11.4818 4.36273C11.7782 4.5405 11.8754 4.92422 11.6995 5.22168L7.54827 12.2389C7.35302 12.569 7.07092 12.8391 6.73271 13.0198L5.23005 13.823C4.8007 14.0525 4.28471 13.7277 4.30593 13.2413L4.37933 11.5595C4.39434 11.2155 4.4939 10.8805 4.6692 10.5842L8.84799 3.52028Z" fill="#2664DF"/>
</g>
<defs>
<clipPath id="clip0">
<rect width="16" height="16" fill="white"/>
</clipPath>
</defs>
</svg>
