<svg width="17" height="16" viewBox="0 0 17 16" fill="none" xmlns="http://www.w3.org/2000/svg">
<g clip-path="url(#clip0)">
<path fill-rule="evenodd" clip-rule="evenodd" d="M13.898 9.00002C14.424 9.00002 14.8503 8.55231 14.8503 8.00002C14.8503 7.44774 14.424 7.00002 13.898 7.00002L9.18353 7.00002L9.18353 2.28571C9.18353 1.75973 8.73581 1.33333 8.18353 1.33333C7.63124 1.33333 7.18353 1.75973 7.18353 2.28572L7.18353 7.00002L2.4694 7.00002C1.94341 7.00002 1.51702 7.44774 1.51702 8.00002C1.51702 8.55231 1.94341 9.00002 2.4694 9.00002L7.18353 9.00002L7.18353 13.7143C7.18353 14.2403 7.63124 14.6667 8.18353 14.6667C8.73581 14.6667 9.18353 14.2403 9.18353 13.7143L9.18353 9.00002L13.898 9.00002Z" fill="white"/>
</g>
<defs>
<clipPath id="clip0">
<rect width="16" height="16" fill="white" transform="translate(0.183838)"/>
</clipPath>
</defs>
</svg>
