<svg width="20" height="20" viewBox="0 0 20 20" fill="none" xmlns="http://www.w3.org/2000/svg">
<g clip-path="url(#clip0)">
<path d="M13.6165 1.66661H6.3915C3.5665 1.66661 1.6665 1.14994 1.6665 4.09994V6.74161C1.6665 9.68327 3.5665 9.1666 6.3915 9.1666H13.6165C16.4415 9.1666 18.3332 9.68327 18.3332 6.74161V4.09994C18.3332 1.14994 16.4415 1.66661 13.6165 1.66661Z" fill="#BED1F6"/>
<path opacity="0.4" fill-rule="evenodd" clip-rule="evenodd" d="M8.05813 1.66699H11.9498C14.7748 1.66699 16.6665 3.65033 16.6665 6.60033V13.4087C16.6665 16.3503 14.7748 18.3337 11.9498 18.3337H8.05813C5.23313 18.3337 3.33313 16.3503 3.33313 13.4087V6.60033C3.33313 3.65033 5.23313 1.66699 8.05813 1.66699ZM7.91656 10.8338C7.68645 10.8338 7.4999 11.0204 7.4999 11.2505C7.4999 11.4806 7.68645 11.6671 7.91656 11.6671H12.0832C12.3134 11.6671 12.4999 11.4806 12.4999 11.2505C12.4999 11.0204 12.3134 10.8338 12.0832 10.8338H7.91656Z" fill="#BED1F6"/>
</g>
<defs>
<clipPath id="clip0">
<rect width="20" height="20" fill="white"/>
</clipPath>
</defs>
</svg>
