<svg width="20" height="20" viewBox="0 0 20 20" fill="none" xmlns="http://www.w3.org/2000/svg">
<g clip-path="url(#clip0)">
<path fill-rule="evenodd" clip-rule="evenodd" d="M8.83269 14.4221C11.8601 14.4221 14.332 11.9496 14.332 8.87771C14.332 5.80578 11.8601 3.33334 8.83269 3.33334C5.80531 3.33334 3.33334 5.80578 3.33334 8.87771C3.33334 11.9496 5.80531 14.4221 8.83269 14.4221ZM8.83269 16.0887C12.7904 16.0887 15.9987 12.8603 15.9987 8.87771C15.9987 4.89516 12.7904 1.66667 8.83269 1.66667C4.87501 1.66667 1.66667 4.89516 1.66667 8.87771C1.66667 12.8603 4.87501 16.0887 8.83269 16.0887Z" fill="#A1B1CA"/>
<path opacity="0.4" d="M17.2289 18.2961C16.9505 18.287 16.6858 18.1725 16.4878 17.9754L14.7908 15.9918C14.427 15.6591 14.3972 15.0936 14.7241 14.7241C14.8771 14.5693 15.0851 14.4822 15.3021 14.4822C15.5191 14.4822 15.7271 14.5693 15.8801 14.7241L18.0144 16.4318C18.3218 16.7464 18.4167 17.2136 18.2566 17.6244C18.0965 18.0352 17.7114 18.3129 17.2733 18.3333L17.2289 18.2961Z" fill="#A1B1CA"/>
</g>
<defs>
<clipPath id="clip0">
<rect width="20" height="20" fill="white"/>
</clipPath>
</defs>
</svg>
