<svg width="16" height="16" viewBox="0 0 16 16" fill="none" xmlns="http://www.w3.org/2000/svg">
<g clip-path="url(#clip0)">
<path fill-rule="evenodd" clip-rule="evenodd" d="M11.5355 12.9497C11.926 13.3403 12.5592 13.3403 12.9497 12.9497C13.3402 12.5592 13.3402 11.9261 12.9497 11.5355L9.4142 8.00001L12.9497 4.46448C13.3402 4.07396 13.3402 3.44079 12.9497 3.05027C12.5592 2.65975 11.926 2.65975 11.5355 3.05027L7.99998 6.5858L4.46443 3.05025C4.07391 2.65973 3.44074 2.65973 3.05022 3.05025C2.65969 3.44077 2.65969 4.07394 3.05022 4.46446L6.58577 8.00001L3.05023 11.5356C2.65971 11.9261 2.65971 12.5592 3.05023 12.9498C3.44075 13.3403 4.07392 13.3403 4.46444 12.9498L7.99998 9.41423L11.5355 12.9497Z" fill="#868A8F"/>
</g>
<defs>
<clipPath id="clip0">
<rect width="16" height="16" fill="white"/>
</clipPath>
</defs>
</svg>
