<svg width="18" height="18" viewBox="0 0 18 18" fill="none" xmlns="http://www.w3.org/2000/svg">
<path fill-rule="evenodd" clip-rule="evenodd" d="M9 16.5C13.1421 16.5 16.5 13.1421 16.5 9C16.5 4.85786 13.1421 1.5 9 1.5C4.85786 1.5 1.5 4.85786 1.5 9C1.5 13.1421 4.85786 16.5 9 16.5ZM13.8183 6.76863C14.1561 6.43079 14.1417 5.89673 13.7861 5.57578C13.4304 5.25483 12.8683 5.26853 12.5304 5.60637L7.54934 10.5875L5.46957 8.50768C5.13173 8.16984 4.56956 8.15615 4.21394 8.4771C3.85832 8.79805 3.8439 9.33211 4.18175 9.66995L6.90543 12.3936C7.07311 12.5613 7.30589 12.6562 7.54934 12.6562C7.7928 12.6562 8.02558 12.5613 8.19326 12.3936L13.8183 6.76863Z" fill="#0BCDA3"/>
</svg>
