<svg width="22" height="23" viewBox="0 0 22 23" fill="none" xmlns="http://www.w3.org/2000/svg">
<path fill-rule="evenodd" clip-rule="evenodd" d="M20.1668 11.5C20.1668 16.5626 16.0628 20.6667 11.0002 20.6667C5.93755 20.6667 1.8335 16.5626 1.8335 11.5C1.8335 6.43739 5.93755 2.33334 11.0002 2.33334C16.0628 2.33334 20.1668 6.43739 20.1668 11.5ZM9.85433 6.91667C9.85433 6.28384 10.3673 5.77084 11.0002 5.77084C11.633 5.77084 12.146 6.28384 12.146 6.91667V11.1135L14.7214 12.6806C15.2621 13.0095 15.4337 13.7144 15.1047 14.255C14.7758 14.7956 14.0709 14.9672 13.5302 14.6383L10.4878 12.7871C10.399 12.733 10.3201 12.6688 10.2517 12.5968C10.0084 12.3867 9.85433 12.0759 9.85433 11.7292V6.91667Z" fill="#868A8F"/>
</svg>
