<svg width="36" height="36" viewBox="0 0 36 36" fill="none" xmlns="http://www.w3.org/2000/svg">
<path d="M3 26L36 26V28C36 29.1046 35.1046 30 34 30H5C3.89543 30 3 29.1046 3 28V26Z" fill="#1E51B6"/>
<path d="M3 11C3 9.89543 3.89543 9 5 9L22 9C23.1046 9 24 9.89543 24 11V26H3L3 11Z" fill="#B5CCFF"/>
<path d="M24 26H36V19.2426C36 18.447 35.6839 17.6839 35.1213 17.1213L31.8787 13.8787C31.3161 13.3161 30.553 13 29.7574 13H24V26Z" fill="#3272F7"/>
<path d="M27.5 22H32.5C32.7761 22 33 21.7761 33 21.5V19.8284C33 19.298 32.7893 18.7893 32.4142 18.4142L30.5858 16.5858C30.2107 16.2107 29.702 16 29.1716 16H27.5C27.2239 16 27 16.2239 27 16.5V21.5C27 21.7761 27.2239 22 27.5 22Z" fill="white"/>
<circle cx="12" cy="30" r="3.5" fill="white" stroke="#113B8A" stroke-width="3"/>
<circle cx="27" cy="30" r="3.5" fill="white" stroke="#113B8A" stroke-width="3"/>
<rect x="21" y="14" width="2" height="15" rx="1" transform="rotate(90 21 14)" fill="white"/>
<rect x="21" y="19" width="2" height="15" rx="1" transform="rotate(90 21 19)" fill="white"/>
<circle cx="7.5" cy="8.5" r="7.5" fill="#36DAD0"/>
<path d="M9.49295 11.0445L11.3496 8.99095C11.6242 8.7164 11.6242 8.27117 11.3496 7.99658L9.49303 6.04713C9.21843 5.77254 8.77321 5.77259 8.49866 6.04713C8.22411 6.32168 8.22406 6.76691 8.49866 7.0415L9.85807 8.49376L8.49858 10.0501C8.22403 10.3246 8.22398 10.7699 8.49858 11.0445C8.77317 11.3191 9.2184 11.319 9.49295 11.0445Z" fill="white"/>
<line x1="3.7" y1="8.60005" x2="9.3" y2="8.60005" stroke="white" stroke-width="1.4" stroke-linecap="round"/>
</svg>
