<svg width="17" height="16" viewBox="0 0 17 16" fill="none" xmlns="http://www.w3.org/2000/svg">
<g clip-path="url(#clip0)">
<path fill-rule="evenodd" clip-rule="evenodd" d="M10.9157 1.33333H12.3972C14.0336 1.33333 15.3602 2.65989 15.3602 4.29629V5.77777V10.0707V11.7037C15.3602 13.3401 14.0336 14.6667 12.3972 14.6667H10.9157H6.4713H4.98982C3.35342 14.6667 2.02686 13.3401 2.02686 11.7037V10.2222V5.77777V4.29629C2.02686 2.65989 3.35342 1.33333 4.98982 1.33333H6.4713H10.9157ZM3.50834 9.60591V11.7037C3.50834 12.5219 4.17162 13.1852 4.98982 13.1852H12.3972C13.2154 13.1852 13.8787 12.5219 13.8787 11.7037V8.68181L12.0692 6.9854C11.9038 6.8303 11.6463 6.8303 11.4809 6.9854L9.6917 8.66275L7.35706 6.1822C7.18724 6.00176 6.90048 6.00176 6.73065 6.1822L3.50834 9.60591ZM12.5366 5.75779C13.2492 5.75779 13.8269 5.18009 13.8269 4.46747C13.8269 3.75484 13.2492 3.17715 12.5366 3.17715C11.824 3.17715 11.2463 3.75484 11.2463 4.46747C11.2463 5.18009 11.824 5.75779 12.5366 5.75779Z" fill="#2664DF"/>
</g>
<defs>
<clipPath id="clip0">
<rect width="16" height="16" fill="white" transform="translate(0.693359)"/>
</clipPath>
</defs>
</svg>
