<svg width="41" height="40" viewBox="0 0 41 40" fill="none" xmlns="http://www.w3.org/2000/svg">
<g clip-path="url(#clip0)">
<path opacity="0.4" d="M11.2452 36.6667C7.16016 36.6667 3.8335 33.2829 3.8335 29.1258L3.8335 20.8573C3.8335 16.7086 7.15016 13.3333 11.2285 13.3333H29.7552C33.8418 13.3333 37.1668 16.7171 37.1668 20.8759V29.141C37.1668 33.2914 33.8502 36.6667 29.7718 36.6667H28.2052H11.2452Z" fill="#C2CAD7"/>
<path d="M19.5916 3.70181L14.7432 8.44479C14.2432 8.935 14.2432 9.72387 14.7466 10.2125C15.2499 10.6994 16.0616 10.6978 16.5616 10.2092L19.2166 7.61047V10.1021V24.0859C19.2166 24.7758 19.7916 25.3358 20.4999 25.3358C21.2099 25.3358 21.7832 24.7758 21.7832 24.0859V7.61047L24.4382 10.2092C24.9382 10.6978 25.7499 10.6994 26.2532 10.2125C26.5049 9.96735 26.6316 9.64758 26.6316 9.32619C26.6316 9.00804 26.5049 8.68827 26.2566 8.44479L21.4099 3.70181C21.1682 3.46645 20.8416 3.33334 20.4999 3.33334C20.1599 3.33334 19.8332 3.46645 19.5916 3.70181Z" fill="#C2CAD7"/>
</g>
<defs>
<clipPath id="clip0">
<rect width="40" height="40" fill="white" transform="translate(0.5)"/>
</clipPath>
</defs>
</svg>
