<svg width="20" height="20" viewBox="0 0 20 20" fill="none" xmlns="http://www.w3.org/2000/svg">
<g clip-path="url(#clip0)">
<path d="M9.95752 12.1162C7.08253 12.1162 4.65674 12.586 4.65674 14.3991C4.65674 16.213 7.0982 16.6663 9.95752 16.6663C12.8325 16.6663 15.2583 16.1965 15.2583 14.3834C15.2583 12.5695 12.8168 12.1162 9.95752 12.1162Z" fill="#BED1F6"/>
<path opacity="0.4" d="M9.95757 10.3889C11.9043 10.3889 13.4653 8.81889 13.4653 6.86094C13.4653 4.90223 11.9043 3.33301 9.95757 3.33301C8.01081 3.33301 6.44983 4.90223 6.44983 6.86094C6.44983 8.81889 8.01081 10.3889 9.95757 10.3889Z" fill="#BED1F6"/>
<path opacity="0.4" d="M17.5733 7.68245C18.077 5.70122 16.6003 3.92188 14.72 3.92188C14.5155 3.92188 14.32 3.94439 14.129 3.98266C14.1036 3.98867 14.0753 4.00142 14.0603 4.02394C14.0432 4.05246 14.0559 4.09073 14.0745 4.11549C14.6394 4.91249 14.964 5.88284 14.964 6.92448C14.964 7.9226 14.6662 8.85317 14.1439 9.6254C14.0902 9.70495 14.1379 9.81226 14.2327 9.82877C14.364 9.85204 14.4983 9.86404 14.6356 9.8678C16.0049 9.90382 17.2338 9.01752 17.5733 7.68245Z" fill="#BED1F6"/>
<path d="M19.0077 12.3474C18.757 11.8101 18.1519 11.4416 17.2318 11.2607C16.7976 11.1541 15.6223 11.0041 14.5292 11.0243C14.5128 11.0266 14.5038 11.0378 14.5023 11.0453C14.5001 11.0558 14.5046 11.0738 14.5262 11.0851C15.0314 11.3365 16.9841 12.4299 16.7386 14.7361C16.7282 14.8359 16.808 14.9222 16.9073 14.9072C17.3878 14.8382 18.6242 14.571 19.0077 13.7387C19.2196 13.299 19.2196 12.7879 19.0077 12.3474Z" fill="#BED1F6"/>
<path opacity="0.4" d="M5.87069 3.98266C5.68042 3.94364 5.48418 3.92188 5.27973 3.92188C3.39938 3.92188 1.92271 5.70122 2.42712 7.68245C2.76588 9.01752 3.99482 9.90382 5.36404 9.8678C5.50134 9.86404 5.6364 9.85129 5.76697 9.82877C5.86174 9.81226 5.90949 9.70495 5.85577 9.6254C5.33345 8.85242 5.03573 7.9226 5.03573 6.92448C5.03573 5.88209 5.36106 4.91174 5.92591 4.11549C5.94382 4.09073 5.95725 4.05246 5.93934 4.02394C5.92442 4.00067 5.89681 3.98867 5.87069 3.98266Z" fill="#BED1F6"/>
<path d="M2.768 11.2601C1.84798 11.441 1.24358 11.8094 0.992868 12.3468C0.780209 12.7873 0.780209 13.2984 0.992868 13.7389C1.3764 14.5704 2.6128 14.8383 3.09333 14.9066C3.19257 14.9216 3.27167 14.8361 3.26122 14.7355C3.01573 12.4301 4.96846 11.3366 5.47436 11.0852C5.49525 11.0732 5.49973 11.056 5.49749 11.0447C5.496 11.0372 5.48779 11.026 5.47137 11.0244C4.37749 11.0034 3.20302 11.1535 2.768 11.2601Z" fill="#BED1F6"/>
</g>
<defs>
<clipPath id="clip0">
<rect width="20" height="20" fill="white"/>
</clipPath>
</defs>
</svg>
