<svg width="18" height="18" viewBox="0 0 18 18" fill="none" xmlns="http://www.w3.org/2000/svg">
<path fill-rule="evenodd" clip-rule="evenodd" d="M16.5 9C16.5 13.1421 13.1421 16.5 9 16.5C4.85786 16.5 1.5 13.1421 1.5 9C1.5 4.85786 4.85786 1.5 9 1.5C13.1421 1.5 16.5 4.85786 16.5 9ZM8.0625 5.25C8.0625 4.73223 8.48223 4.3125 9 4.3125C9.51777 4.3125 9.9375 4.73223 9.9375 5.25V10.875C9.9375 11.3928 9.51777 11.8125 9 11.8125C8.48223 11.8125 8.0625 11.3928 8.0625 10.875V5.25ZM9 12.75C8.48223 12.75 8.0625 13.1697 8.0625 13.6875C8.0625 14.2053 8.48223 14.625 9 14.625C9.51777 14.625 9.9375 14.2053 9.9375 13.6875C9.9375 13.1697 9.51777 12.75 9 12.75Z" fill="#F66363"/>
</svg>
