<svg width="8" height="8" viewBox="0 0 8 8" fill="none" xmlns="http://www.w3.org/2000/svg">
<path fill-rule="evenodd" clip-rule="evenodd" d="M6.6515 7.71216C6.9444 8.00505 7.41927 8.00505 7.71216 7.71216C8.00506 7.41927 8.00506 6.94439 7.71216 6.6515L5.06052 3.99986L7.71217 1.34822C8.00507 1.05532 8.00507 0.580449 7.71217 0.287556C7.41928 -0.00533763 6.94441 -0.00533767 6.65151 0.287556L3.99986 2.9392L1.3482 0.287541C1.05531 -0.00535206 0.580434 -0.0053523 0.287541 0.287541C-0.00535234 0.580434 -0.00535203 1.05531 0.287541 1.3482L2.9392 3.99986L0.287551 6.65152C-0.00534159 6.94441 -0.0053419 7.41928 0.287551 7.71218C0.580445 8.00507 1.05532 8.00507 1.34821 7.71218L3.99986 5.06052L6.6515 7.71216Z" fill="#F4F7FD"/>
</svg>
