<svg width="24" height="24" viewBox="0 0 24 24" fill="none" xmlns="http://www.w3.org/2000/svg">
<g clip-path="url(#clip0)">
<path fill-rule="evenodd" clip-rule="evenodd" d="M17.303 19.4246C17.8888 20.0104 18.8385 20.0104 19.4243 19.4246C20.0101 18.8388 20.0101 17.889 19.4243 17.3032L14.121 12L19.4243 6.69667C20.0101 6.11089 20.0101 5.16114 19.4243 4.57535C18.8386 3.98957 17.8888 3.98957 17.303 4.57535L11.9997 9.87865L6.6964 4.57533C6.11062 3.98954 5.16087 3.98954 4.57508 4.57533C3.9893 5.16111 3.9893 6.11086 4.57508 6.69665L9.87841 12L4.5751 17.3033C3.98931 17.8891 3.98931 18.8388 4.5751 19.4246C5.16089 20.0104 6.11063 20.0104 6.69642 19.4246L11.9997 14.1213L17.303 19.4246Z" fill="#F4F7FD"/>
</g>
<defs>
<clipPath id="clip0">
<rect width="24" height="24" fill="white"/>
</clipPath>
</defs>
</svg>
