<svg width="18" height="18" viewBox="0 0 18 18" fill="none" xmlns="http://www.w3.org/2000/svg">
<g clip-path="url(#clip0)">
<path fill-rule="evenodd" clip-rule="evenodd" d="M5.7525 1.5H12.255C14.7975 1.5 16.5 3.285 16.5 5.94V12.0675C16.5 14.715 14.7975 16.5 12.255 16.5H5.7525C3.21 16.5 1.5 14.715 1.5 12.0675V5.94C1.5 3.285 3.21 1.5 5.7525 1.5ZM8.99038 6.75011C8.37628 6.75011 7.875 6.24483 7.875 5.62511C7.875 5.0054 8.38141 4.50011 9.0032 4.50011C9.62244 4.50011 10.125 5.0054 10.125 5.62511C10.125 6.24483 9.62244 6.75011 8.99038 6.75011ZM8.0625 9.18761C8.0625 8.66985 8.48223 8.25011 9 8.25011C9.51777 8.25011 9.9375 8.66985 9.9375 9.18761V12.5626C9.9375 13.0804 9.51777 13.5001 9 13.5001C8.48223 13.5001 8.0625 13.0804 8.0625 12.5626V9.18761Z" fill="#A1B1CA"/>
</g>
<defs>
<clipPath id="clip0">
<rect width="18" height="18" fill="white"/>
</clipPath>
</defs>
</svg>
