<svg width="16" height="16" viewBox="0 0 16 16" fill="none" xmlns="http://www.w3.org/2000/svg">
<g clip-path="url(#clip0)">
<path fill-rule="evenodd" clip-rule="evenodd" d="M1.3335 5.58838C1.3335 3.93152 2.67664 2.58838 4.3335 2.58838H10.5022C12.159 2.58838 13.5022 3.93152 13.5022 5.58838V8.44443C13.1099 8.278 12.6767 8.18568 12.2213 8.18568C10.4527 8.18568 9.01897 9.5779 9.01897 11.2953C9.01897 11.7376 9.11405 12.1583 9.28544 12.5392H4.3335C2.67664 12.5392 1.3335 11.196 1.3335 9.53918V5.58838ZM3.37736 4.71023C3.58541 4.43245 3.98596 4.37103 4.27202 4.57306L7.41784 6.79472L10.5637 4.57306C10.8497 4.37103 11.2503 4.43245 11.4583 4.71023C11.6664 4.98802 11.6031 5.37698 11.317 5.57901L7.79454 8.0667C7.56996 8.22531 7.26571 8.22531 7.04114 8.0667L3.51863 5.57901C3.23256 5.37698 3.16932 4.98802 3.37736 4.71023Z" fill="#2664DF"/>
<path fill-rule="evenodd" clip-rule="evenodd" d="M14.2558 12.0259C14.6335 11.6378 14.6335 11.0195 14.2558 10.6313L13.7689 10.1309C13.1431 9.48754 12.0522 9.93064 12.0522 10.8282L12.0522 10.8399L10.7508 10.8399C10.4073 10.8399 10.1288 11.1183 10.1288 11.4618C10.1288 11.8053 10.4073 12.0837 10.7508 12.0837L12.0687 12.0837C12.0736 12.0837 12.0784 12.0836 12.0832 12.0835C12.2653 12.8042 13.2055 13.1055 13.7689 12.5264L14.2558 12.0259Z" fill="#2664DF"/>
</g>
<defs>
<clipPath id="clip0">
<rect width="16" height="16" fill="white"/>
</clipPath>
</defs>
</svg>
